<?xml version="1.0"?>
<svg xmlns="http://www.w3.org/2000/svg" version="1" viewBox="0 0 24 24" enable-background="new 0 0 24 24">
    <path d="M 9 2 L 7 4 L 4 4 C 2.9 4 2 4.9 2 6 L 2 18 C 2 19.1 2.9 20 4 20 L 20 20 C 21.1 20 22 19.1 22 18 L 22 6 C 22 4.9 21.1 4 20 4 L 17 4 L 15 2 L 9 2 z M 12 7 C 14.8 7 17 9.2 17 12 C 17 14.8 14.8 17 12 17 C 9.2 17 7 14.8 7 12 C 7 9.2 9.2 7 12 7 z M 12 8.5 C 10.067003 8.5 8.5 10.067003 8.5 12 C 8.5 13.932997 10.067003 15.5 12 15.5 C 13.932997 15.5 15.5 13.932997 15.5 12 C 15.5 10.067003 13.932997 8.5 12 8.5 z"/>
</svg>
