<?xml version="1.0" encoding="UTF-8" standalone="no"?>
<svg width="350px" height="400px" viewBox="0 0 350 400" version="1.1" xmlns="http://www.w3.org/2000/svg" xmlns:xlink="http://www.w3.org/1999/xlink">
    <!-- Generator: Sketch 47.1 (45422) - http://www.bohemiancoding.com/sketch -->
    <title>Menu</title>
    <desc>Created with Sketch.</desc>
    <defs>
        <rect id="path-1" x="0" y="0" width="350" height="400" rx="5"></rect>
    </defs>
    <g id="Symbols" stroke="none" stroke-width="1" fill="none" fill-rule="evenodd">
        <g id="Menu">
            <g id="Rectangle-2">
                <use fill="#CECFBE" fill-rule="evenodd" xlink:href="#path-1"></use>
                <rect stroke="#979797" stroke-width="1" x="0.5" y="0.5" width="349" height="399" rx="5"></rect>
            </g>
            <text font-family="OpenSans-Regular, Open Sans" font-size="20" font-weight="normal" fill-opacity="0.398777174" fill="#000000">
                <tspan x="148" y="48">Menu</tspan>
            </text>
            <rect id="Rectangle-4" fill-opacity="0.177762681" fill="#000000" x="30" y="72" width="150" height="6" rx="3"></rect>
            <rect id="Rectangle-4" fill-opacity="0.177762681" fill="#000000" x="30" y="96" width="150" height="6" rx="3"></rect>
            <rect id="Rectangle-4" fill-opacity="0.177762681" fill="#000000" x="30" y="120" width="175" height="6" rx="3"></rect>
            <rect id="Rectangle-4" fill-opacity="0.177762681" fill="#000000" x="30" y="144" width="250" height="6" rx="3"></rect>
            <rect id="Rectangle-4" fill-opacity="0.177762681" fill="#000000" x="30" y="168" width="200" height="6" rx="3"></rect>
            <rect id="Rectangle-4" fill-opacity="0.177762681" fill="#000000" x="27" y="194" width="225" height="6" rx="3"></rect>
            <rect id="Rectangle-4" fill-opacity="0.177762681" fill="#000000" x="30" y="315" width="225" height="6" rx="3"></rect>
            <rect id="Rectangle-4" fill-opacity="0.177762681" fill="#000000" x="30" y="339" width="250" height="6" rx="3"></rect>
            <rect id="Rectangle-4" fill-opacity="0.177762681" fill="#000000" x="148" y="218" width="120" height="6" rx="3"></rect>
            <rect id="Rectangle-4" fill-opacity="0.177762681" fill="#000000" x="148" y="243" width="150" height="6" rx="3"></rect>
            <rect id="Rectangle-4" fill-opacity="0.177762681" fill="#000000" x="148" y="267" width="150" height="6" rx="3"></rect>
            <rect id="Rectangle-4" fill-opacity="0.177762681" fill="#000000" x="27" y="291" width="225" height="6" rx="3"></rect>
            <rect id="Rectangle-5" stroke-opacity="0.18" stroke="#000000" stroke-width="6" x="238" y="75" width="72" height="37" rx="3"></rect>
            <rect id="Rectangle-5" stroke-opacity="0.18" stroke="#000000" stroke-width="6" x="30" y="221" width="94" height="44" rx="3"></rect>
        </g>
    </g>
</svg>