<?xml version="1.0" encoding="UTF-8" standalone="no"?>
<svg width="300px" height="134px" viewBox="0 0 300 134" version="1.1" xmlns="http://www.w3.org/2000/svg" xmlns:xlink="http://www.w3.org/1999/xlink">
    <!-- Generator: Sketch 47.1 (45422) - http://www.bohemiancoding.com/sketch -->
    <title>raspberry_pi_image</title>
    <desc>Created with Sketch.</desc>
    <defs>
        <filter x="-2.8%" y="-9.0%" width="105.5%" height="118.1%" filterUnits="objectBoundingBox" id="filter-1">
            <feOffset dx="0" dy="0" in="SourceAlpha" result="shadowOffsetOuter1"></feOffset>
            <feGaussianBlur stdDeviation="2.5" in="shadowOffsetOuter1" result="shadowBlurOuter1"></feGaussianBlur>
            <feColorMatrix values="0 0 0 0 0   0 0 0 0 0   0 0 0 0 0  0 0 0 0.5 0" type="matrix" in="shadowBlurOuter1" result="shadowMatrixOuter1"></feColorMatrix>
            <feMerge>
                <feMergeNode in="shadowMatrixOuter1"></feMergeNode>
                <feMergeNode in="SourceGraphic"></feMergeNode>
            </feMerge>
        </filter>
        <rect id="path-2" x="147" y="28.5" width="11" height="11" rx="1"></rect>
        <path d="M3,46.5 L3,49 C3,49.5522847 3.44771525,50 4,50 L33,50 C33.5522847,50 34,49.5522847 34,49 L34,19 C34,18.4477153 33.5522847,18 33,18 L4,18 L4,18 C3.44771525,18 3,18.4477153 3,19 L3,19 L3,21.5 L7,21.5 C7.55228475,21.5 8,21.9477153 8,22.5 L8,45.5 C8,46.0522847 7.55228475,46.5 7,46.5 L3,46.5 Z" id="path-3"></path>
        <rect id="path-4" x="0" y="0.5" width="60.5" height="63.5" rx="4"></rect>
    </defs>
    <g id="Symbols" stroke="none" stroke-width="1" fill="none" fill-rule="evenodd">
        <g id="raspberry_pi_image">
            <g id="Group" filter="url(#filter-1)" transform="translate(15.000000, 26.000000)">
                <g id="pi-zero-w">
                    <g id="pcb">
                        <path d="M7,0 L165,0 C168.865993,-7.10171439e-16 172,3.13400675 172,7 L172,73 C172,76.8659932 168.865993,80 165,80 L7,80 C3.13400675,80 4.73447626e-16,76.8659932 0,73 L0,7 L8.8817842e-16,7 C4.14730794e-16,3.13400675 3.13400675,7.10171439e-16 7,0 L7,0 Z M9.5,13.5 C11.709139,13.5 13.5,11.709139 13.5,9.5 C13.5,7.290861 11.709139,5.5 9.5,5.5 C7.290861,5.5 5.5,7.290861 5.5,9.5 C5.5,11.709139 7.290861,13.5 9.5,13.5 Z M9.5,74.5 C11.709139,74.5 13.5,72.709139 13.5,70.5 C13.5,68.290861 11.709139,66.5 9.5,66.5 C7.290861,66.5 5.5,68.290861 5.5,70.5 C5.5,72.709139 7.290861,74.5 9.5,74.5 Z M162.5,13.5 C164.709139,13.5 166.5,11.709139 166.5,9.5 C166.5,7.290861 164.709139,5.5 162.5,5.5 C160.290861,5.5 158.5,7.290861 158.5,9.5 C158.5,11.709139 160.290861,13.5 162.5,13.5 Z M162.5,74.5 C164.709139,74.5 166.5,72.709139 166.5,70.5 C166.5,68.290861 164.709139,66.5 162.5,66.5 C160.290861,66.5 158.5,68.290861 158.5,70.5 C158.5,72.709139 160.290861,74.5 162.5,74.5 Z" id="Combined-Shape" fill="#008A44"></path>
                        <path d="M9.5,17 C5.35786438,17 2,13.6421356 2,9.5 C2,5.35786438 5.35786438,2 9.5,2 C13.6421356,2 17,5.35786438 17,9.5 C17,13.6421356 13.6421356,17 9.5,17 Z M9.5,13.5 C11.709139,13.5 13.5,11.709139 13.5,9.5 C13.5,7.290861 11.709139,5.5 9.5,5.5 C7.290861,5.5 5.5,7.290861 5.5,9.5 C5.5,11.709139 7.290861,13.5 9.5,13.5 Z" id="Combined-Shape" fill="#FEDD5E"></path>
                        <path d="M9.5,78 C5.35786438,78 2,74.6421356 2,70.5 C2,66.3578644 5.35786438,63 9.5,63 C13.6421356,63 17,66.3578644 17,70.5 C17,74.6421356 13.6421356,78 9.5,78 Z M9.5,74.5 C11.709139,74.5 13.5,72.709139 13.5,70.5 C13.5,68.290861 11.709139,66.5 9.5,66.5 C7.290861,66.5 5.5,68.290861 5.5,70.5 C5.5,72.709139 7.290861,74.5 9.5,74.5 Z" id="Combined-Shape" fill="#FEDD5E"></path>
                        <path d="M162.5,17 C158.357864,17 155,13.6421356 155,9.5 C155,5.35786438 158.357864,2 162.5,2 C166.642136,2 170,5.35786438 170,9.5 C170,13.6421356 166.642136,17 162.5,17 Z M162.5,13.5 C164.709139,13.5 166.5,11.709139 166.5,9.5 C166.5,7.290861 164.709139,5.5 162.5,5.5 C160.290861,5.5 158.5,7.290861 158.5,9.5 C158.5,11.709139 160.290861,13.5 162.5,13.5 Z" id="Combined-Shape" fill="#FEDD5E"></path>
                        <path d="M162.5,78 C158.357864,78 155,74.6421356 155,70.5 C155,66.3578644 158.357864,63 162.5,63 C166.642136,63 170,66.3578644 170,70.5 C170,74.6421356 166.642136,78 162.5,78 Z M162.5,74.5 C164.709139,74.5 166.5,72.709139 166.5,70.5 C166.5,68.290861 164.709139,66.5 162.5,66.5 C160.290861,66.5 158.5,68.290861 158.5,70.5 C158.5,72.709139 160.290861,74.5 162.5,74.5 Z" id="Combined-Shape" fill="#FEDD5E"></path>
                    </g>
                    <polygon id="Path-2" fill="#FFA000" points="174 25 183 25 189 20 216 20 216 60 189 60 183 55 174 55"></polygon>
                    <polygon id="Path-2" fill="#E08D00" points="175 27.5 184 27.5 190 22.5 217 22.5 217 57.5 190 57.5 184 52.5 175 52.5"></polygon>
                    <g id="Rectangle-4">
                        <use fill="#8A7970" fill-rule="evenodd" xlink:href="#path-2"></use>
                        <rect stroke="#161616" stroke-width="1" x="147.5" y="29" width="10" height="10" rx="1"></rect>
                    </g>
                    <rect id="Rectangle" stroke="#F0F0F0" stroke-width="0.5" x="18.25" y="2.5" width="134.5" height="13.5" rx="1"></rect>
                    <rect id="Rectangle-2" fill="#313131" x="107" y="40" width="15" height="8" rx="1"></rect>
                    <rect id="Rectangle-5" fill="#F6D1A9" x="44" y="47" width="6" height="8"></rect>
                    <rect id="Rectangle-2" fill="#313131" x="142" y="42" width="8" height="8" rx="1"></rect>
                    <rect id="Rectangle-2" fill="#313131" x="50" y="65" width="3" height="8" rx="1"></rect>
                    <rect id="Rectangle-2" fill="#313131" x="9.5" y="54.5" width="3" height="3" rx="1"></rect>
                    <g id="Group-3" transform="translate(20.000000, 4.000000)" stroke="#979797" stroke-width="0.25" fill="#FFFFFF">
                        <g id="Group-2" transform="translate(0.000000, 6.500000)">
                            <circle id="Oval-2" cx="2.5" cy="2" r="2"></circle>
                            <circle id="Oval-2-Copy" cx="9.15789474" cy="2" r="2"></circle>
                            <circle id="Oval-2-Copy-2" cx="15.8157895" cy="2" r="2"></circle>
                            <circle id="Oval-2-Copy-3" cx="22.4736842" cy="2" r="2"></circle>
                            <circle id="Oval-2-Copy-4" cx="29.1315789" cy="2" r="2"></circle>
                            <circle id="Oval-2-Copy-5" cx="35.7894737" cy="2" r="2"></circle>
                            <circle id="Oval-2-Copy-6" cx="42.4473684" cy="2" r="2"></circle>
                            <circle id="Oval-2-Copy-7" cx="49.1052632" cy="2" r="2"></circle>
                            <circle id="Oval-2-Copy-8" cx="55.7631579" cy="2" r="2"></circle>
                            <circle id="Oval-2-Copy-9" cx="62.4210526" cy="2" r="2"></circle>
                            <circle id="Oval-2-Copy-10" cx="69.0789474" cy="2" r="2"></circle>
                            <circle id="Oval-2-Copy-11" cx="75.7368421" cy="2" r="2"></circle>
                            <circle id="Oval-2-Copy-12" cx="82.3947368" cy="2" r="2"></circle>
                            <circle id="Oval-2-Copy-13" cx="89.0526316" cy="2" r="2"></circle>
                            <circle id="Oval-2-Copy-14" cx="95.7105263" cy="2" r="2"></circle>
                            <circle id="Oval-2-Copy-15" cx="102.368421" cy="2" r="2"></circle>
                            <circle id="Oval-2-Copy-16" cx="109.026316" cy="2" r="2"></circle>
                            <circle id="Oval-2-Copy-17" cx="115.684211" cy="2" r="2"></circle>
                            <circle id="Oval-2-Copy-18" cx="122.342105" cy="2" r="2"></circle>
                            <circle id="Oval-2-Copy-19" cx="129" cy="2" r="2"></circle>
                        </g>
                        <g id="Group-2">
                            <circle id="Oval-2" cx="2.5" cy="2" r="2"></circle>
                            <circle id="Oval-2-Copy" cx="9.15789474" cy="2" r="2"></circle>
                            <circle id="Oval-2-Copy-2" cx="15.8157895" cy="2" r="2"></circle>
                            <circle id="Oval-2-Copy-3" cx="22.4736842" cy="2" r="2"></circle>
                            <circle id="Oval-2-Copy-4" cx="29.1315789" cy="2" r="2"></circle>
                            <circle id="Oval-2-Copy-5" cx="35.7894737" cy="2" r="2"></circle>
                            <circle id="Oval-2-Copy-6" cx="42.4473684" cy="2" r="2"></circle>
                            <circle id="Oval-2-Copy-7" cx="49.1052632" cy="2" r="2"></circle>
                            <circle id="Oval-2-Copy-8" cx="55.7631579" cy="2" r="2"></circle>
                            <circle id="Oval-2-Copy-9" cx="62.4210526" cy="2" r="2"></circle>
                            <circle id="Oval-2-Copy-10" cx="69.0789474" cy="2" r="2"></circle>
                            <circle id="Oval-2-Copy-11" cx="75.7368421" cy="2" r="2"></circle>
                            <circle id="Oval-2-Copy-12" cx="82.3947368" cy="2" r="2"></circle>
                            <circle id="Oval-2-Copy-13" cx="89.0526316" cy="2" r="2"></circle>
                            <circle id="Oval-2-Copy-14" cx="95.7105263" cy="2" r="2"></circle>
                            <circle id="Oval-2-Copy-15" cx="102.368421" cy="2" r="2"></circle>
                            <circle id="Oval-2-Copy-16" cx="109.026316" cy="2" r="2"></circle>
                            <circle id="Oval-2-Copy-17" cx="115.684211" cy="2" r="2"></circle>
                            <circle id="Oval-2-Copy-18" cx="122.342105" cy="2" r="2"></circle>
                            <circle id="Oval-2-Copy-19" cx="129" cy="2" r="2"></circle>
                        </g>
                    </g>
                    <g id="Combined-Shape">
                        <use fill="#D8D8D8" fill-rule="evenodd" xlink:href="#path-3"></use>
                        <path stroke="#979797" stroke-width="0.5" d="M3.25,46.75 L3.25,49 C3.25,49.4142136 3.58578644,49.75 4,49.75 L33,49.75 C33.4142136,49.75 33.75,49.4142136 33.75,49 L33.75,19 C33.75,18.5857864 33.4142136,18.25 33,18.25 L4,18.25 C3.58578644,18.25 3.25,18.5857864 3.25,19 L3.25,21.25 L7,21.25 C7.69035594,21.25 8.25,21.8096441 8.25,22.5 L8.25,45.5 C8.25,46.1903559 7.69035594,46.75 7,46.75 L3.25,46.75 Z"></path>
                    </g>
                    <rect id="Rectangle-9" fill="#ACACAC" x="160" y="25" width="5" height="31" rx="1"></rect>
                    <rect id="Rectangle-9" fill="#313131" x="169" y="18" width="6" height="43" rx="1"></rect>
                    <rect id="Rectangle-9" fill="#D8D8D8" x="164" y="18" width="7" height="43" rx="1"></rect>
                    <rect id="Rectangle-9" fill="#313131" x="52" y="28" width="35" height="32" rx="2"></rect>
                    <rect id="Rectangle-10" fill="#D8D8D8" x="18" y="62" width="29" height="21" rx="2"></rect>
                    <rect id="Rectangle-10" fill="#D8D8D8" x="100" y="65" width="20" height="18" rx="2"></rect>
                    <rect id="Rectangle-10" fill="#D8D8D8" x="133" y="65" width="20" height="18" rx="2"></rect>
                    <g id="Group-7" transform="translate(103.000000, 76.000000)" fill="#ACACAC">
                        <rect id="Rectangle-2" x="0" y="0" width="3" height="4" rx="1"></rect>
                        <rect id="Rectangle-2" x="11" y="0" width="3" height="4" rx="1"></rect>
                    </g>
                    <g id="Group-8" transform="translate(21.000000, 74.000000)" fill="#ACACAC">
                        <rect id="Rectangle-2" x="20" y="0" width="3" height="6" rx="1"></rect>
                        <rect id="Rectangle-2" x="0" y="0" width="3" height="6" rx="1"></rect>
                    </g>
                    <g id="Group-7" transform="translate(136.000000, 76.000000)" fill="#ACACAC">
                        <rect id="Rectangle-2" x="0" y="0" width="3" height="4" rx="1"></rect>
                        <rect id="Rectangle-2" x="11" y="0" width="3" height="4" rx="1"></rect>
                    </g>
                    <rect id="Rectangle-3" fill="#F8C388" x="70.5" y="17.5" width="6" height="3" rx="1"></rect>
                    <rect id="Rectangle-3" fill="#F8C388" x="145.5" y="54" width="4" height="9" rx="1"></rect>
                    <rect id="Rectangle-3" fill="#F8C388" x="151" y="43" width="3" height="5" rx="1"></rect>
                    <rect id="Rectangle-3" fill="#F8C388" x="2" y="53" width="3" height="5" rx="1"></rect>
                    <rect id="Rectangle-3" fill="#F8C388" x="156" y="43" width="3" height="5" rx="1"></rect>
                    <rect id="Rectangle-3" fill="#F8C388" x="138" y="45" width="3" height="5" rx="1"></rect>
                    <rect id="Rectangle-3" fill="#F8C388" x="133" y="45" width="3" height="5" rx="1"></rect>
                    <rect id="Rectangle-3" fill="#F8C388" x="70.5" y="23.5" width="6" height="3" rx="1"></rect>
                    <rect id="Rectangle-3" fill="#F8C388" x="122" y="70" width="6" height="3" rx="1"></rect>
                    <rect id="Rectangle-3" fill="#8E8381" x="85" y="18.5" width="6" height="7" rx="1"></rect>
                    <rect id="Rectangle-3" fill="#8E8381" x="134" y="54" width="8" height="5" rx="1"></rect>
                    <rect id="Rectangle-3" fill="#8E8381" x="103" y="30" width="5" height="3" rx="1"></rect>
                    <g id="raspberry_pi" transform="translate(111.000000, 20.000000)" fill-rule="nonzero" fill="#FFFFFF">
                        <path d="M10.7164865,6.8013396 L10.596798,6.62180689 C10.596798,5.27531157 9.96843355,4.70679132 9.25030271,4.28788166 C9.45975754,4.22803743 9.69913448,4.16819319 9.75897872,3.89889413 C10.1479663,3.80912777 10.2078105,3.62959506 10.2377326,3.45006235 C10.327499,3.39021812 10.6566423,3.21068541 10.6267201,2.88154211 C10.8062529,2.76185363 10.9259413,2.58232092 10.8660971,2.34294398 C11.0755519,2.13348915 11.105474,1.95395644 11.0456298,1.77442373 C11.2850068,1.47520255 11.1653183,1.32559196 11.0755519,1.17598136 C11.2550846,0.846838064 11.105474,0.487772644 10.596798,0.547616881 C10.3873432,0.248395698 9.96843355,0.308239935 9.90858931,0.308239935 C9.84874507,0.21847358 9.75897872,0.128707225 9.45975754,0.158629344 C9.25030271,-0.020903366 9.04084788,0.00901875228 8.83139305,0.0987851071 C8.56209399,-0.110669721 8.38256128,0.0688629888 8.17310645,0.128707225 C7.84396315,0.00901875228 7.78411891,0.158629344 7.60458621,0.21847358 C7.24552079,0.128707225 7.15575443,0.308239935 6.97622172,0.487772644 L6.76676689,0.487772644 C6.22816877,0.816915945 5.9588697,1.44528043 5.86910335,1.77442373 C5.77933699,1.44528043 5.51003793,0.786993827 4.9714398,0.487772644 L4.76198497,0.487772644 C4.58245226,0.308239935 4.49268591,0.158629344 4.13362049,0.21847358 C3.9840099,0.158629344 3.89424354,0.00901875228 3.56510024,0.128707225 C3.44541177,0.0987851071 3.32572329,0.00901875228 3.1761127,0.00901875228 L3.1761127,0.00901875228 C3.08634635,0.00901875228 3.02650211,0.0389408705 2.93673576,0.0987851071 C2.69735881,0.0389408705 2.48790398,0.00901875228 2.27844916,0.158629344 C1.97922797,0.128707225 1.88946162,0.188551462 1.79969526,0.308239935 C1.73985103,0.308239935 1.29101925,0.248395698 1.11148654,0.547616881 C0.602810533,0.487772644 0.453199941,0.846838064 0.632732651,1.17598136 C0.542966296,1.32559196 0.423277823,1.47520255 0.662654769,1.77442373 C0.602810533,1.92403432 0.632732651,2.10356703 0.842187479,2.34294398 C0.782343242,2.58232092 0.902031715,2.73193151 1.08156442,2.85161999 C1.05164231,3.18076329 1.38078561,3.360296 1.47055196,3.42014023 C1.50047408,3.59967294 1.59024044,3.77920565 1.94930585,3.86897201 C2.00915009,4.13827107 2.24852704,4.19811531 2.45798186,4.25795955 C1.73985103,4.6768692 1.11148654,5.24538945 1.11148654,6.59188477 L0.99179807,6.77141748 C0.183900877,7.31001561 -0.564152079,8.92580999 0.602810533,10.2423832 C0.692576887,10.6612929 0.812265361,10.960514 0.931953834,11.2896573 C1.11148654,12.6062305 2.21860492,13.234595 2.5178261,13.2944393 C2.93673576,13.6235826 3.41548965,13.9228037 4.01393201,14.1621807 C4.58245226,14.7606231 5.24073886,15 5.86910335,15 C5.86910335,15 5.89902546,15 5.89902546,15 C6.52738995,15 7.15575443,14.7606231 7.7541968,14.1621807 C8.38256128,13.9527259 8.83139305,13.6235826 9.25030271,13.2944393 C9.54952389,13.234595 10.6566423,12.6062305 10.836175,11.2896573 C10.9558635,10.960514 11.0755519,10.6612929 11.1653183,10.2423832 C12.3023588,8.92580999 11.5543058,7.31001561 10.7164865,6.8013396 Z M9.96843355,6.56196265 C9.93851143,7.10056078 7.12583231,4.64694708 7.60458621,4.58710285 C8.92115941,4.37764802 9.99835567,5.15562309 9.96843355,6.56196265 Z M6.88645537,0.876760182 C6.91637749,0.996448655 6.9462996,1.08621501 6.97622172,1.08621501 C7.12583231,0.9066823 7.24552079,0.757071709 7.45497561,0.577538999 C7.45497561,0.667305354 7.39513138,0.786993827 7.51481985,0.846838064 C7.63450832,0.697227472 7.7541968,0.577538999 7.96365162,0.457850526 C7.87388527,0.607461117 7.93372951,0.667305354 7.99357374,0.72714959 C8.14318433,0.607461117 8.29279493,0.457850526 8.56209399,0.368084171 C8.50224975,0.457850526 8.38256128,0.547616881 8.50224975,0.667305354 C8.65186034,0.577538999 8.80147094,0.487772644 9.16053635,0.39800629 C9.07077,0.487772644 8.92115941,0.577538999 9.01092576,0.667305354 C9.19045847,0.607461117 9.3999133,0.547616881 9.63929025,0.517694763 C9.51960177,0.607461117 9.42983542,0.697227472 9.51960177,0.786993827 C9.7290566,0.72714959 9.99835567,0.637383236 10.2676547,0.697227472 L10.088122,0.876760182 C10.1180441,0.9066823 10.5369538,0.9066823 10.8062529,0.9066823 C10.7164865,1.05629289 10.596798,1.20590348 10.5369538,1.44528043 C10.5668759,1.47520255 10.7164865,1.44528043 10.836175,1.44528043 C10.7164865,1.74450161 10.4771096,1.80434585 10.4172653,1.92403432 C10.5070317,1.98387856 10.6267201,1.98387856 10.7464086,1.92403432 C10.6566423,2.13348915 10.4471874,2.25317762 10.2975768,2.43271033 C10.327499,2.46263245 10.4172653,2.49255457 10.5668759,2.46263245 C10.4172653,2.61224304 10.2377326,2.76185363 10.0282778,2.91146422 C10.0581999,2.94138634 10.2078105,2.94138634 10.327499,2.97130846 C10.1479663,3.15084117 9.87866719,3.27052964 9.66921237,3.39021812 C9.78890084,3.47998447 9.87866719,3.45006235 9.96843355,3.45006235 C9.81882296,3.59967294 9.51960177,3.65951718 9.28022483,3.74928353 C9.34006906,3.83904989 9.36999118,3.83904989 9.48967966,3.86897201 C9.22038059,4.0185826 8.83139305,3.95873836 8.71170458,4.0185826 C8.7416267,4.10834895 8.80147094,4.13827107 8.89123729,4.19811531 C8.44240552,4.22803743 7.24552079,4.16819319 7.00614384,3.24060752 C7.45497561,2.73193151 8.29279493,2.13348915 9.69913448,1.41535831 C8.59201611,1.80434585 7.60458621,2.28309974 6.76676689,2.97130846 C5.74941487,2.49255457 6.40770147,1.32559196 6.88645537,0.876760182 Z M5.86910335,4.19811531 C6.55731207,4.19811531 7.4250535,4.70679132 7.4250535,5.21546733 C7.4250535,5.6642991 6.82661113,5.9934424 5.86910335,5.9934424 C4.94151768,5.9934424 4.3131532,5.54461063 4.3131532,5.12570097 C4.3131532,4.79655767 5.09112827,4.19811531 5.86910335,4.19811531 L5.86910335,4.19811531 Z M2.33829339,3.83904989 C2.45798186,3.80912777 2.48790398,3.80912777 2.54774822,3.71936142 C2.27844916,3.62959506 2.00915009,3.56975083 1.8595395,3.42014023 C1.94930585,3.42014023 2.03907221,3.45006235 2.15876068,3.360296 C1.91938374,3.24060752 1.68000679,3.15084117 1.50047408,2.94138634 C1.62016255,2.94138634 1.73985103,2.94138634 1.79969526,2.88154211 C1.59024044,2.76185363 1.41070773,2.61224304 1.26109713,2.43271033 C1.44062984,2.46263245 1.50047408,2.43271033 1.5303962,2.40278821 C1.38078561,2.25317762 1.17133078,2.10356703 1.08156442,1.8941122 C1.2012529,1.92403432 1.32094137,1.95395644 1.41070773,1.8941122 C1.29101925,1.80434585 1.05164231,1.74450161 0.931953834,1.44528043 C1.05164231,1.44528043 1.2012529,1.47520255 1.23117502,1.44528043 C1.17133078,1.20590348 1.05164231,1.05629289 0.961875952,0.9066823 C1.23117502,0.9066823 1.68000679,0.9066823 1.65008467,0.876760182 L1.47055196,0.697227472 C1.73985103,0.637383236 2.03907221,0.697227472 2.21860492,0.786993827 C2.30837127,0.72714959 2.21860492,0.637383236 2.09891645,0.517694763 C2.33829339,0.547616881 2.54774822,0.607461117 2.72728093,0.667305354 C2.81704728,0.577538999 2.66743669,0.487772644 2.57767034,0.39800629 C2.93673576,0.457850526 3.08634635,0.547616881 3.23595694,0.667305354 C3.35564541,0.547616881 3.23595694,0.457850526 3.1761127,0.368084171 C3.47533389,0.487772644 3.62494448,0.607461117 3.77455507,0.757071709 C3.8343993,0.697227472 3.89424354,0.637383236 3.80447719,0.487772644 C3.9840099,0.607461117 4.13362049,0.72714959 4.25330896,0.876760182 C4.37299743,0.786993827 4.3131532,0.697227472 4.3131532,0.607461117 C4.52260802,0.757071709 4.6422965,0.936604418 4.79190709,1.11613713 C4.82182921,1.08621501 4.85175133,1.02637077 4.88167344,0.9066823 C5.36042734,1.38543619 6.04863606,2.5523988 5.06120615,3.00123058 C4.22338684,2.31302186 3.23595694,1.80434585 2.12883856,1.44528043 C3.53517812,2.16341127 4.37299743,2.76185363 4.82182921,3.27052964 C4.58245226,4.19811531 3.38556753,4.22803743 2.93673576,4.22803743 C3.02650211,4.19811531 3.11626847,4.13827107 3.11626847,4.04850472 C3.02650211,3.92881624 2.60759246,3.98866048 2.33829339,3.83904989 Z M3.9840099,4.55718073 C4.46276379,4.64694708 1.65008467,7.10056078 1.62016255,6.53204053 C1.56031832,5.09577886 2.66743669,4.31780378 3.9840099,4.55718073 Z M1.02172019,10.0030063 C0.333511468,9.46440812 0.124056641,7.84861374 1.38078561,7.1304829 C2.15876068,6.92102807 1.65008467,10.2723053 1.02172019,10.0030063 Z M3.68478871,12.8755296 C3.29580118,13.1149065 2.36821551,13.0251402 1.70992891,12.0676324 C1.26109713,11.2597352 1.32094137,10.451838 1.62016255,10.2124611 C2.09891645,9.9132399 2.81704728,10.3022274 3.38556753,10.960514 C3.86432142,11.5290343 4.10369837,12.5763084 3.68478871,12.8755296 Z M2.93673576,9.37464177 C2.21860492,8.92580999 2.09891645,7.87853585 2.66743669,7.04071654 C3.20603482,6.20289723 4.22338684,5.90367605 4.94151768,6.38242994 C5.65964852,6.83126172 5.77933699,7.87853585 5.21081674,8.71635517 C4.6422965,9.52425236 3.62494448,9.82347354 2.93673576,9.37464177 Z M5.86910335,14.491324 C5.03128404,14.5212461 4.19346472,13.8031153 4.19346472,13.5338162 C4.19346472,13.1747508 5.21081674,12.8755296 5.89902546,12.9054517 C6.58723418,12.8755296 7.48489773,13.1149065 7.51481985,13.4440499 C7.51481985,13.8031153 6.67700054,14.5212461 5.86910335,14.491324 Z M7.60458621,10.8408256 C7.60458621,11.708567 6.85653325,12.4266978 5.89902546,12.4266978 C4.94151768,12.4266978 4.19346472,11.7384891 4.19346472,10.8707477 C4.19346472,10.8707477 4.19346472,10.8707477 4.19346472,10.8408256 C4.19346472,9.97308413 4.94151768,9.25495329 5.89902546,9.25495329 C6.82661113,9.28487541 7.60458621,9.97308413 7.60458621,10.8408256 C7.60458621,10.8408256 7.60458621,10.8408256 7.60458621,10.8408256 Z M6.52738995,8.62658881 C5.98879182,7.7887695 6.10848029,6.74149536 6.79668901,6.29266359 C7.51481985,5.84383181 8.53217187,6.143053 9.07077,6.95095019 C9.60936813,7.7887695 9.48967966,8.83604364 8.80147094,9.28487541 C8.11326222,9.7636293 7.09591019,9.46440812 6.52738995,8.62658881 Z M9.99835567,12.0975545 C9.28022483,13.1149065 8.29279493,13.1448287 7.90380739,12.8755296 C7.51481985,12.5164642 7.81404103,11.3794237 8.35263916,10.7809813 L8.35263916,10.7809813 C8.95108153,10.0927726 9.60936813,9.64394083 10.0581999,10.0030063 C10.327499,10.3022274 10.5070317,11.4093458 9.99835567,12.0975545 Z M10.5668759,9.94316201 C9.93851143,10.2124611 9.42983542,6.86118383 10.2078105,7.07063866 C11.4645395,7.81869162 11.2251625,9.40456389 10.5668759,9.94316201 Z" id="Shape"></path>
                    </g>
                </g>
                <g id="camera" transform="translate(210.000000, 7.000000)">
                    <mask id="mask-5" fill="white">
                        <use xlink:href="#path-4"></use>
                    </mask>
                    <g id="Mask"></g>
                    <g id="Group-6" mask="url(#mask-5)">
                        <g transform="translate(0.000000, -1.000000)">
                            <path d="M4,1.5 L56.5,1.5 C58.709139,1.5 60.5,3.290861 60.5,5.5 L60.5,61 C60.5,63.209139 58.709139,65 56.5,65 L4,65 C1.790861,65 2.705415e-16,63.209139 0,61 L0,5.5 L0,5.5 C-2.705415e-16,3.290861 1.790861,1.5 4,1.5 L4,1.5 Z M23.5,8.43333333 C25.1200353,8.43333333 26.4333333,7.12003527 26.4333333,5.5 C26.4333333,3.87996473 25.1200353,2.56666667 23.5,2.56666667 C21.8799647,2.56666667 20.5666667,3.87996473 20.5666667,5.5 C20.5666667,7.12003527 21.8799647,8.43333333 23.5,8.43333333 Z M55.5,62.9366664 C57.1200353,62.9366664 58.4333333,61.6233683 58.4333333,60.003333 C58.4333333,58.3832978 57.1200353,57.0699997 55.5,57.0699997 C53.8799647,57.0699997 52.5666667,58.3832978 52.5666667,60.003333 C52.5666667,61.6233683 53.8799647,62.9366664 55.5,62.9366664 Z M55,8.43666636 C56.6200353,8.43666636 57.9333333,7.12336829 57.9333333,5.50333303 C57.9333333,3.88329776 56.6200353,2.56999969 55,2.56999969 C53.3799647,2.56999969 52.0666667,3.88329776 52.0666667,5.50333303 C52.0666667,7.12336829 53.3799647,8.43666636 55,8.43666636 Z M23.5,63.4333333 C25.1200353,63.4333333 26.4333333,62.1200353 26.4333333,60.5 C26.4333333,58.8799647 25.1200353,57.5666667 23.5,57.5666667 C21.8799647,57.5666667 20.5666667,58.8799647 20.5666667,60.5 C20.5666667,62.1200353 21.8799647,63.4333333 23.5,63.4333333 Z" id="Combined-Shape" fill="#008A44"></path>
                            <rect id="Rectangle-7" fill="#3E3952" x="44" y="19" width="9" height="22" rx="1"></rect>
                            <path d="M55,11 C51.9624339,11 49.5,8.53756612 49.5,5.5 C49.5,2.46243388 51.9624339,0 55,0 C58.0375661,0 60.5,2.46243388 60.5,5.5 C60.5,8.53756612 58.0375661,11 55,11 Z M55,8.43333333 C56.6200353,8.43333333 57.9333333,7.12003527 57.9333333,5.5 C57.9333333,3.87996473 56.6200353,2.56666667 55,2.56666667 C53.3799647,2.56666667 52.0666667,3.87996473 52.0666667,5.5 C52.0666667,7.12003527 53.3799647,8.43333333 55,8.43333333 Z" id="Combined-Shape" fill="#FEDD5E"></path>
                            <path d="M55.5,65.5 C52.4624339,65.5 50,63.0375661 50,60 C50,56.9624339 52.4624339,54.5 55.5,54.5 C58.5375661,54.5 61,56.9624339 61,60 C61,63.0375661 58.5375661,65.5 55.5,65.5 Z M55.5,62.9333333 C57.1200353,62.9333333 58.4333333,61.6200353 58.4333333,60 C58.4333333,58.3799647 57.1200353,57.0666667 55.5,57.0666667 C53.8799647,57.0666667 52.5666667,58.3799647 52.5666667,60 C52.5666667,61.6200353 53.8799647,62.9333333 55.5,62.9333333 Z" id="Combined-Shape" fill="#FEDD5E"></path>
                            <path d="M23.5,11 C20.4624339,11 18,8.53756612 18,5.5 C18,2.46243388 20.4624339,0 23.5,0 C26.5375661,0 29,2.46243388 29,5.5 C29,8.53756612 26.5375661,11 23.5,11 Z M23.5,8.43333333 C25.1200353,8.43333333 26.4333333,7.12003527 26.4333333,5.5 C26.4333333,3.87996473 25.1200353,2.56666667 23.5,2.56666667 C21.8799647,2.56666667 20.5666667,3.87996473 20.5666667,5.5 C20.5666667,7.12003527 21.8799647,8.43333333 23.5,8.43333333 Z" id="Combined-Shape" fill="#FEDD5E"></path>
                            <path d="M23.5,66 C20.4624339,66 18,63.5375661 18,60.5 C18,57.4624339 20.4624339,55 23.5,55 C26.5375661,55 29,57.4624339 29,60.5 C29,63.5375661 26.5375661,66 23.5,66 Z M23.5,63.4333333 C25.1200353,63.4333333 26.4333333,62.1200353 26.4333333,60.5 C26.4333333,58.8799647 25.1200353,57.5666667 23.5,57.5666667 C21.8799647,57.5666667 20.5666667,58.8799647 20.5666667,60.5 C20.5666667,62.1200353 21.8799647,63.4333333 23.5,63.4333333 Z" id="Combined-Shape" fill="#FEDD5E"></path>
                            <rect id="Rectangle-11" fill="#31262E" x="35" y="22" width="9" height="18"></rect>
                            <rect id="Rectangle-11" fill="#6A4300" x="35" y="22" width="1" height="18"></rect>
                            <rect id="Rectangle-11" fill="#6A4300" x="43" y="22" width="1" height="18"></rect>
                            <g id="Group-5" stroke-width="1" fill="none" transform="translate(13.000000, 22.000000)">
                                <rect id="Rectangle-7" fill="#3E3952" x="0" y="0" width="22" height="22"></rect>
                                <circle id="Oval-3" fill="#130E12" cx="11" cy="11" r="8"></circle>
                                <circle id="Oval-4" fill="#1A1B3E" cx="11" cy="11" r="2"></circle>
                            </g>
                        </g>
                    </g>
                    <g id="raspberry_pi" mask="url(#mask-5)" fill-rule="nonzero" fill="#FFFFFF">
                        <g transform="translate(7.000000, 8.000000)" id="Shape">
                            <path d="M7.14432434,4.5342264 L7.06453202,4.41453792 C7.06453202,3.51687438 6.64562237,3.13786088 6.16686847,2.85858778 C6.30650502,2.81869162 6.46608966,2.77879546 6.50598581,2.59926275 C6.76531084,2.53941851 6.805207,2.41973004 6.82515507,2.30004157 C6.88499931,2.26014541 7.10442818,2.14045694 7.0844801,1.92102807 C7.20416857,1.84123575 7.28396089,1.72154728 7.24406473,1.56196265 C7.38370128,1.4223261 7.40364936,1.30263763 7.3637532,1.18294915 C7.52333783,0.983468365 7.44354552,0.88372797 7.38370128,0.783987576 C7.50338976,0.564558709 7.40364936,0.325181763 7.06453202,0.365077921 C6.92489547,0.165597132 6.64562237,0.20549329 6.60572621,0.20549329 C6.56583005,0.145649053 6.50598581,0.0858048169 6.30650502,0.105752896 C6.16686847,-0.0139355773 6.02723192,0.00601250152 5.88759537,0.065856738 C5.70806266,-0.0737798138 5.58837419,0.0459086592 5.44873763,0.0858048169 C5.22930877,0.00601250152 5.18941261,0.105752896 5.06972414,0.145649053 C4.83034719,0.0858048169 4.77050295,0.20549329 4.65081448,0.325181763 L4.51117793,0.325181763 C4.15211251,0.54461063 3.9725798,0.963520286 3.91273556,1.18294915 C3.85289133,0.963520286 3.67335862,0.524662551 3.3142932,0.325181763 L3.17465665,0.325181763 C3.05496817,0.20549329 2.99512394,0.105752896 2.75574699,0.145649053 C2.6560066,0.105752896 2.59616236,0.00601250152 2.37673349,0.0858048169 C2.29694118,0.065856738 2.21714886,0.00601250152 2.11740847,0.00601250152 L2.11740847,0.00601250152 C2.05756423,0.00601250152 2.01766807,0.0259605804 1.95782384,0.065856738 C1.79823921,0.0259605804 1.65860266,0.00601250152 1.5189661,0.105752896 C1.31948532,0.0858048169 1.25964108,0.125700975 1.19979684,0.20549329 C1.15990068,0.20549329 0.860679502,0.165597132 0.740991029,0.365077921 C0.401873688,0.325181763 0.302133294,0.564558709 0.421821767,0.783987576 C0.361977531,0.88372797 0.282185215,0.983468365 0.441769846,1.18294915 C0.401873688,1.28268955 0.421821767,1.40237802 0.561458319,1.56196265 C0.521562162,1.72154728 0.601354477,1.82128768 0.72104295,1.90107999 C0.701094871,2.12050886 0.920523738,2.24019733 0.980367975,2.28009349 C1.00031605,2.39978196 1.06016029,2.51947044 1.29953724,2.57931467 C1.33943339,2.75884738 1.49901802,2.79874354 1.63865458,2.8386397 C1.15990068,3.1179128 0.740991029,3.4969263 0.740991029,4.39458985 L0.661198713,4.51427832 C0.122600585,4.87334374 -0.376101386,5.95054 0.401873688,6.82825546 C0.461717925,7.10752857 0.54151024,7.30700936 0.621302556,7.52643822 C0.740991029,8.40415369 1.47906995,8.82306335 1.67855073,8.86295951 C1.95782384,9.08238837 2.2769931,9.28186916 2.67595468,9.44145379 C3.05496817,9.84041537 3.49382591,10 3.91273556,10 C3.91273556,10 3.93268364,10 3.93268364,10 C4.3515933,10 4.77050295,9.84041537 5.16946453,9.44145379 C5.58837419,9.30181724 5.88759537,9.08238837 6.16686847,8.86295951 C6.36634926,8.82306335 7.10442818,8.40415369 7.22411665,7.52643822 C7.30390897,7.30700936 7.38370128,7.10752857 7.44354552,6.82825546 C8.20157251,5.95054 7.70287054,4.87334374 7.14432434,4.5342264 Z M6.64562237,4.37464177 C6.62567429,4.73370719 4.75055488,3.09796472 5.06972414,3.05806856 C5.94743961,2.91843201 6.66557044,3.43708206 6.64562237,4.37464177 Z M4.59097024,0.584506788 C4.61091832,0.664299103 4.6308664,0.72414334 4.65081448,0.72414334 C4.75055488,0.604454867 4.83034719,0.504714472 4.96998374,0.385025999 C4.96998374,0.444870236 4.93008758,0.524662551 5.0098799,0.564558709 C5.08967222,0.464818315 5.16946453,0.385025999 5.30910108,0.305233684 C5.24925685,0.404974078 5.289153,0.444870236 5.32904916,0.484766394 C5.42878956,0.404974078 5.52852995,0.305233684 5.70806266,0.245389448 C5.6681665,0.305233684 5.58837419,0.365077921 5.6681665,0.444870236 C5.7679069,0.385025999 5.86764729,0.325181763 6.10702424,0.265337526 C6.04718,0.325181763 5.94743961,0.385025999 6.00728384,0.444870236 C6.12697232,0.404974078 6.26660887,0.365077921 6.4261935,0.345129842 C6.34640118,0.404974078 6.28655695,0.464818315 6.34640118,0.524662551 C6.48603773,0.484766394 6.66557044,0.424922157 6.84510315,0.464818315 L6.72541468,0.584506788 C6.74536276,0.604454867 7.02463586,0.604454867 7.20416857,0.604454867 C7.14432434,0.704195261 7.06453202,0.803935655 7.02463586,0.963520286 C7.04458394,0.983468365 7.14432434,0.963520286 7.22411665,0.963520286 C7.14432434,1.16300107 6.98473971,1.20289723 6.94484355,1.28268955 C7.00468778,1.3225857 7.0844801,1.3225857 7.16427241,1.28268955 C7.10442818,1.4223261 6.96479163,1.50211841 6.86505123,1.62180689 C6.88499931,1.64175497 6.94484355,1.66170305 7.04458394,1.64175497 C6.94484355,1.74149536 6.82515507,1.84123575 6.68551852,1.94097615 C6.7054666,1.96092423 6.805207,1.96092423 6.88499931,1.98087231 C6.76531084,2.10056078 6.58577813,2.18035309 6.44614158,2.26014541 C6.52593389,2.31998965 6.58577813,2.30004157 6.64562237,2.30004157 C6.54588197,2.39978196 6.34640118,2.43967812 6.18681655,2.49952236 C6.22671271,2.55936659 6.24666079,2.55936659 6.3264531,2.57931467 C6.14692039,2.67905507 5.88759537,2.63915891 5.80780305,2.67905507 C5.82775113,2.7388993 5.86764729,2.75884738 5.92749153,2.79874354 C5.62827034,2.81869162 4.83034719,2.77879546 4.67076256,2.16040502 C4.96998374,1.82128768 5.52852995,1.4223261 6.46608966,0.943572207 C5.72801074,1.20289723 5.06972414,1.52206649 4.51117793,1.98087231 C3.83294325,1.66170305 4.27180098,0.88372797 4.59097024,0.584506788 Z M3.91273556,2.79874354 C4.37154138,2.79874354 4.95003566,3.13786088 4.95003566,3.47697822 C4.95003566,3.7761994 4.55107409,3.99562827 3.91273556,3.99562827 C3.29434512,3.99562827 2.87543546,3.69640709 2.87543546,3.41713398 C2.87543546,3.19770512 3.39408551,2.79874354 3.91273556,2.79874354 L3.91273556,2.79874354 Z M1.55886226,2.55936659 C1.63865458,2.53941851 1.65860266,2.53941851 1.69849881,2.47957428 C1.5189661,2.41973004 1.33943339,2.37983388 1.239693,2.28009349 C1.29953724,2.28009349 1.35938147,2.30004157 1.43917379,2.24019733 C1.27958916,2.16040502 1.12000453,2.10056078 1.00031605,1.96092423 C1.08010837,1.96092423 1.15990068,1.96092423 1.19979684,1.92102807 C1.06016029,1.84123575 0.940471817,1.74149536 0.840731423,1.62180689 C0.960419896,1.64175497 1.00031605,1.62180689 1.02026413,1.60185881 C0.920523738,1.50211841 0.780887186,1.40237802 0.72104295,1.26274147 C0.800835265,1.28268955 0.880627581,1.30263763 0.940471817,1.26274147 C0.860679502,1.20289723 0.701094871,1.16300107 0.621302556,0.963520286 C0.701094871,0.963520286 0.800835265,0.983468365 0.820783344,0.963520286 C0.780887186,0.803935655 0.701094871,0.704195261 0.641250635,0.604454867 C0.820783344,0.604454867 1.12000453,0.604454867 1.10005645,0.584506788 L0.980367975,0.464818315 C1.15990068,0.424922157 1.35938147,0.464818315 1.47906995,0.524662551 C1.53891418,0.484766394 1.47906995,0.424922157 1.39927763,0.345129842 C1.55886226,0.365077921 1.69849881,0.404974078 1.81818729,0.444870236 C1.87803152,0.385025999 1.77829113,0.325181763 1.71844689,0.265337526 C1.95782384,0.305233684 2.05756423,0.365077921 2.15730463,0.444870236 C2.23709694,0.365077921 2.15730463,0.305233684 2.11740847,0.245389448 C2.31688926,0.325181763 2.41662965,0.404974078 2.51637005,0.504714472 C2.5562662,0.464818315 2.59616236,0.424922157 2.53631812,0.325181763 C2.6560066,0.404974078 2.75574699,0.484766394 2.83553931,0.584506788 C2.91533162,0.524662551 2.87543546,0.464818315 2.87543546,0.404974078 C3.01507202,0.504714472 3.09486433,0.624402946 3.19460473,0.744091419 C3.2145528,0.72414334 3.23450088,0.684247182 3.25444896,0.604454867 C3.57361822,0.923624128 4.03242404,1.7015992 3.37413744,2.00082039 C2.81559123,1.54201457 2.15730463,1.20289723 1.41922571,0.963520286 C2.35678541,1.44227418 2.91533162,1.84123575 3.2145528,2.18035309 C3.05496817,2.79874354 2.25704502,2.81869162 1.95782384,2.81869162 C2.01766807,2.79874354 2.07751231,2.75884738 2.07751231,2.69900314 C2.01766807,2.61921083 1.73839497,2.65910699 1.55886226,2.55936659 Z M2.6560066,3.03812049 C2.97517586,3.09796472 1.10005645,4.73370719 1.08010837,4.35469369 C1.04021221,3.3971859 1.77829113,2.87853585 2.6560066,3.03812049 Z M0.681146792,6.66867083 C0.222340979,6.30960541 0.082704427,5.23240916 0.920523738,4.75365527 C1.43917379,4.61401871 1.10005645,6.84820354 0.681146792,6.66867083 Z M2.45652581,8.5836864 C2.19720078,8.74327103 1.57881034,8.6834268 1.13995261,8.04508827 C0.840731423,7.50649015 0.880627581,6.96789202 1.08010837,6.80830739 C1.39927763,6.6088266 1.87803152,6.86815162 2.25704502,7.30700936 C2.57621428,7.68602285 2.73579891,8.38420561 2.45652581,8.5836864 Z M1.95782384,6.24976118 C1.47906995,5.95054 1.39927763,5.25235724 1.77829113,4.69381103 C2.13735655,4.13526482 2.81559123,3.93578403 3.29434512,4.25495329 C3.77309901,4.55417448 3.85289133,5.25235724 3.47387783,5.81090344 C3.09486433,6.34950157 2.41662965,6.54898236 1.95782384,6.24976118 Z M3.91273556,9.66088266 C3.35418936,9.68083074 2.79564315,9.20207685 2.79564315,9.02254414 C2.79564315,8.78316719 3.47387783,8.5836864 3.93268364,8.60363448 C4.39148946,8.5836864 4.98993182,8.74327103 5.0098799,8.9626999 C5.0098799,9.20207685 4.45133369,9.68083074 3.91273556,9.66088266 Z M5.06972414,7.22721704 C5.06972414,7.80571133 4.57102217,8.28446522 3.93268364,8.28446522 C3.29434512,8.28446522 2.79564315,7.82565941 2.79564315,7.24716512 C2.79564315,7.24716512 2.79564315,7.24716512 2.79564315,7.22721704 C2.79564315,6.64872275 3.29434512,6.16996886 3.93268364,6.16996886 C4.55107409,6.18991694 5.06972414,6.64872275 5.06972414,7.22721704 C5.06972414,7.22721704 5.06972414,7.22721704 5.06972414,7.22721704 Z M4.3515933,5.75105921 C3.99252788,5.192513 4.07232019,4.49433024 4.53112601,4.19510906 C5.0098799,3.89588788 5.68811458,4.09536866 6.04718,4.63396679 C6.40624542,5.192513 6.3264531,5.89069576 5.86764729,6.18991694 C5.40884148,6.5090862 4.7306068,6.30960541 4.3515933,5.75105921 Z M6.66557044,8.06503635 C6.18681655,8.74327103 5.52852995,8.76321911 5.26920493,8.5836864 C5.0098799,8.34430946 5.20936069,7.58628246 5.56842611,7.18732088 L5.56842611,7.18732088 C5.96738768,6.72851507 6.40624542,6.42929389 6.7054666,6.66867083 C6.88499931,6.86815162 7.00468778,7.60623054 6.66557044,8.06503635 Z M7.04458394,6.62877468 C6.62567429,6.80830739 6.28655695,4.57412256 6.805207,4.71375911 C7.64302631,5.21246108 7.48344168,6.26970926 7.04458394,6.62877468 Z"></path>
                        </g>
                    </g>
                </g>
            </g>
            <path d="" id="Path-3" stroke="#979797"></path>
        </g>
    </g>
</svg>