<?xml version="1.0" encoding="UTF-8" standalone="no"?>
<svg width="75px" height="50px" viewBox="0 0 75 50" version="1.1" xmlns="http://www.w3.org/2000/svg" xmlns:xlink="http://www.w3.org/1999/xlink">
    <!-- Generator: Sketch 47.1 (45422) - http://www.bohemiancoding.com/sketch -->
    <title>Artboard</title>
    <desc>Created with Sketch.</desc>
    <defs></defs>
    <g id="Symbols" stroke="none" stroke-width="1" fill="none" fill-rule="evenodd">
        <g id="Artboard">
            <g id="Group" transform="translate(11.000000, 10.000000)">
                <g id="camera" fill-rule="nonzero" fill="#0074D9">
                    <path d="M11.6666667,0 L8.33333333,3.33333333 L3.33333333,3.33333333 C1.5,3.33333333 0,4.83333333 0,6.66666667 L0,26.6666667 C0,28.5 1.5,30 3.33333333,30 L30,30 C31.8333333,30 33.3333333,28.5 33.3333333,26.6666667 L33.3333333,6.66666667 C33.3333333,4.83333333 31.8333333,3.33333333 30,3.33333333 L25,3.33333333 L21.6666667,0 L11.6666667,0 Z M16.6666667,8.33333333 C21.3333333,8.33333333 25,12 25,16.6666667 C25,21.3333333 21.3333333,25 16.6666667,25 C12,25 8.33333333,21.3333333 8.33333333,16.6666667 C8.33333333,12 12,8.33333333 16.6666667,8.33333333 Z M16.6666667,10.8333333 C13.445005,10.8333333 10.8333333,13.445005 10.8333333,16.6666667 C10.8333333,19.8883283 13.445005,22.5 16.6666667,22.5 C19.8883283,22.5 22.5,19.8883283 22.5,16.6666667 C22.5,13.445005 19.8883283,10.8333333 16.6666667,10.8333333 Z" id="Shape"></path>
                </g>
                <g id="Speaker_Icon" transform="translate(15.000000, 0.000000)" stroke="#0074D9" stroke-width="3" stroke-linecap="round">
                    <path d="M25.2768,21.618 C26.4342,19.7604 27.114,17.5746 27.114,15.2262 C27.114,12.8394 26.4156,10.6218 25.2258,8.7462" id="path1"></path>
                    <path d="M29.4492,4.5222 C31.6662,7.5138 32.9796,11.2164 32.9796,15.2262 C32.9796,19.1988 31.689,22.869 29.5068,25.8456" id="path2"></path>
                    <path d="M33.426,29.7666 C36.5862,25.767 38.4768,20.7186 38.4768,15.2268 C38.4768,9.6966 36.5616,4.6176 33.3654,0.606" id="path1"></path>
                </g>
            </g>
        </g>
    </g>
</svg>