<?xml version="1.0" encoding="UTF-8" standalone="no"?>
<svg width="200px" height="75px" viewBox="0 0 200 75" version="1.1" xmlns="http://www.w3.org/2000/svg" xmlns:xlink="http://www.w3.org/1999/xlink">
    <!-- Generator: Sketch 47.1 (45422) - http://www.bohemiancoding.com/sketch -->
    <title>vocal-focals-title-logo</title>
    <desc>Created with Sketch.</desc>
    <defs>
        <polygon id="path-1" points="0 30 30 30 30 0 0 0"></polygon>
    </defs>
    <g id="Symbols" stroke="none" stroke-width="1" fill="none" fill-rule="evenodd">
        <g id="vocal-focals-title-logo">
            <g id="Group" transform="translate(7.000000, 10.000000)">
                <text id="VocalFocals" font-family="OpenSans-Italic, Open Sans" font-size="26" font-style="italic" font-weight="normal" fill="#0074D9">
                    <tspan x="45" y="48">Vocal</tspan>
                    <tspan x="106.305664" y="48" font-family="OpenSans-Bold, Open Sans" font-weight="bold">Focals</tspan>
                </text>
                <g id="vocal-focals-3">
                    <g id="eye_text_bubble" transform="translate(10.000000, 10.000000)">
                        <g id="g10" transform="translate(15.000000, 15.000000) scale(-1, 1) rotate(-180.000000) translate(-15.000000, -15.000000) ">
                            <g id="g12">
                                <g id="g14-Clipped">
                                    <mask id="mask-2" fill="white">
                                        <use xlink:href="#path-1"></use>
                                    </mask>
                                    <g id="path18"></g>
                                    <g id="g14" mask="url(#mask-2)" fill="#0074D9">
                                        <g id="g20" transform="translate(15.640500, 0.533833)" fill-rule="nonzero">
                                            <path d="M11.6666667,1.66666667 C9.38416667,4.405 8.41416667,7.14083333 8.0025,8.955 C7.94833333,9.19083333 7.795,9.3925 7.58083333,9.50583333 C7.36666667,9.62 7.11416667,9.635 6.88916667,9.5475 L0.961666667,7.25666667 C0.71,7.15916667 0.52,6.945 0.454166667,6.68333333 C0.388333333,6.42 0.438333333,6.12833333 0.63,5.93666667 C5.60333333,0.953333333 10.9808333,0.299166667 11.0258333,0.299166667 C11.3216667,0.299166667 11.5991667,0.456666667 11.7491667,0.718333333 C11.9225,1.02083333 11.89,1.39916667 11.6666667,1.66666667" id="path22"></path>
                                        </g>
                                        <g id="g24" transform="translate(0.000000, 5.000000)" fill-rule="nonzero">
                                            <path d="M15,23.3333333 C6.71583333,23.3333333 0,15 0,11.6666667 C0,8.33333333 6.71583333,0 15,0 C23.2841667,0 30,8.33333333 30,11.6666667 C30,15 23.2841667,23.3333333 15,23.3333333 Z M15,19.1666667 C19.1358333,19.1666667 22.5,15.8025 22.5,11.6666667 C22.5,7.53083333 19.1358333,4.16666667 15,4.16666667 C10.8641667,4.16666667 7.5,7.53083333 7.5,11.6666667 C7.5,15.8025 10.8641667,19.1666667 15,19.1666667 Z" id="Combined-Shape"></path>
                                        </g>
                                        <g id="g32" transform="translate(10.833333, 12.500000)">
                                            <path d="M4.16666667,-3.55271368e-15 C1.86583333,-3.55271368e-15 0,1.86583333 0,4.16666667 C0,6.4675 1.86583333,8.33333333 4.16666667,8.33333333 C6.4675,8.33333333 8.33333333,6.4675 8.33333333,4.16666667 C8.33333333,1.86583333 6.4675,-3.55271368e-15 4.16666667,-3.55271368e-15" id="path34-path"></path>
                                        </g>
                                    </g>
                                </g>
                            </g>
                        </g>
                    </g>
                </g>
            </g>
        </g>
    </g>
</svg>